<mxfile host="Electron" modified="2024-06-07T19:19:23.638Z" agent="Mozilla/5.0 (Windows NT 10.0; Win64; x64) AppleWebKit/537.36 (KHTML, like Gecko) draw.io/24.4.13 Chrome/124.0.6367.207 Electron/30.0.6 Safari/537.36" etag="A8NUHgWTLkngVCcgYHpy" version="24.4.13" type="device">
  <diagram name="Page-1" id="5BXPesKo9DQAovq7GphD">
    <mxGraphModel dx="648" dy="517" grid="1" gridSize="10" guides="1" tooltips="1" connect="1" arrows="1" fold="1" page="1" pageScale="1" pageWidth="827" pageHeight="1169" math="0" shadow="0">
      <root>
        <mxCell id="0" />
        <mxCell id="1" parent="0" />
        <mxCell id="aWeNKlxiGIkFY0a5E8xL-21" value="" style="rounded=1;whiteSpace=wrap;html=1;strokeColor=none;fillColor=#999999;" parent="1" vertex="1">
          <mxGeometry x="344" y="260" width="136" height="160" as="geometry" />
        </mxCell>
        <mxCell id="aWeNKlxiGIkFY0a5E8xL-20" value="" style="rounded=1;whiteSpace=wrap;html=1;strokeColor=none;fillColor=#999999;" parent="1" vertex="1">
          <mxGeometry x="100" y="260" width="135" height="160" as="geometry" />
        </mxCell>
        <mxCell id="aWeNKlxiGIkFY0a5E8xL-1" value="" style="rounded=1;whiteSpace=wrap;html=1;strokeColor=none;fillColor=#7EA6E0;" parent="1" vertex="1">
          <mxGeometry x="117.5" y="280" width="100" height="130" as="geometry" />
        </mxCell>
        <mxCell id="aWeNKlxiGIkFY0a5E8xL-4" value="" style="rounded=1;whiteSpace=wrap;html=1;strokeColor=none;fillColor=#7EA6E0;" parent="1" vertex="1">
          <mxGeometry x="359" y="280" width="101" height="130" as="geometry" />
        </mxCell>
        <mxCell id="aWeNKlxiGIkFY0a5E8xL-7" value="" style="rounded=0;whiteSpace=wrap;html=1;strokeColor=none;fillColor=#FF8000;" parent="1" vertex="1">
          <mxGeometry x="130" y="290" width="80" height="110" as="geometry" />
        </mxCell>
        <mxCell id="aWeNKlxiGIkFY0a5E8xL-9" value="" style="rounded=0;whiteSpace=wrap;html=1;strokeColor=none;fillColor=#FF8000;" parent="1" vertex="1">
          <mxGeometry x="370" y="290" width="80" height="110" as="geometry" />
        </mxCell>
        <mxCell id="aWeNKlxiGIkFY0a5E8xL-10" value="" style="rounded=0;whiteSpace=wrap;html=1;strokeColor=none;fillColor=#FF8000;" parent="1" vertex="1">
          <mxGeometry x="200" y="290" width="30" height="15" as="geometry" />
        </mxCell>
        <mxCell id="aWeNKlxiGIkFY0a5E8xL-11" value="" style="rounded=0;whiteSpace=wrap;html=1;strokeColor=none;fillColor=#FF8000;" parent="1" vertex="1">
          <mxGeometry x="350" y="290" width="30" height="15" as="geometry" />
        </mxCell>
        <mxCell id="aWeNKlxiGIkFY0a5E8xL-17" value="" style="rounded=1;whiteSpace=wrap;html=1;strokeColor=none;fillColor=#333333;fontColor=#4D4D4D;" parent="1" vertex="1">
          <mxGeometry x="180" y="270" width="220" height="20" as="geometry" />
        </mxCell>
        <mxCell id="aWeNKlxiGIkFY0a5E8xL-6" value="" style="rounded=0;whiteSpace=wrap;html=1;strokeColor=none;fillColor=#E6E6E6;" parent="1" vertex="1">
          <mxGeometry x="140" y="300" width="300" height="90" as="geometry" />
        </mxCell>
        <mxCell id="aWeNKlxiGIkFY0a5E8xL-22" value="&lt;font style=&quot;font-size: 18px;&quot; face=&quot;Times New Roman&quot;&gt;Substrate&lt;/font&gt;" style="text;strokeColor=none;align=center;fillColor=none;html=1;verticalAlign=middle;whiteSpace=wrap;rounded=0;fontSize=18;" parent="1" vertex="1">
          <mxGeometry x="260" y="330" width="60" height="30" as="geometry" />
        </mxCell>
        <mxCell id="aWeNKlxiGIkFY0a5E8xL-27" style="rounded=0;orthogonalLoop=1;jettySize=auto;html=1;entryX=0.025;entryY=0.462;entryDx=0;entryDy=0;entryPerimeter=0;exitX=1;exitY=1;exitDx=0;exitDy=0;" parent="1" source="aWeNKlxiGIkFY0a5E8xL-23" target="aWeNKlxiGIkFY0a5E8xL-1" edge="1">
          <mxGeometry relative="1" as="geometry">
            <mxPoint x="93.75496644295303" y="279.2841272546141" as="targetPoint" />
            <mxPoint x="93.76" y="340" as="sourcePoint" />
          </mxGeometry>
        </mxCell>
        <mxCell id="aWeNKlxiGIkFY0a5E8xL-23" value="Intermediate electrode" style="text;strokeColor=none;align=center;fillColor=none;html=1;verticalAlign=middle;whiteSpace=wrap;rounded=0;fontFamily=Times New Roman;fontSize=18;" parent="1" vertex="1">
          <mxGeometry x="21.25" y="310" width="72.5" height="20" as="geometry" />
        </mxCell>
        <mxCell id="aWeNKlxiGIkFY0a5E8xL-28" style="rounded=0;orthogonalLoop=1;jettySize=auto;html=1;entryX=0.074;entryY=0.882;entryDx=0;entryDy=0;entryPerimeter=0;" parent="1" target="aWeNKlxiGIkFY0a5E8xL-20" edge="1">
          <mxGeometry relative="1" as="geometry">
            <mxPoint x="70" y="390" as="targetPoint" />
            <mxPoint x="80" y="420" as="sourcePoint" />
          </mxGeometry>
        </mxCell>
        <mxCell id="aWeNKlxiGIkFY0a5E8xL-24" value="&lt;font style=&quot;font-size: 18px;&quot;&gt;External electrode&lt;/font&gt;" style="text;strokeColor=none;align=center;fillColor=none;html=1;verticalAlign=middle;whiteSpace=wrap;rounded=0;fontFamily=Times New Roman;fontSize=18;" parent="1" vertex="1">
          <mxGeometry x="21.25" y="430" width="82.5" height="20" as="geometry" />
        </mxCell>
        <mxCell id="aWeNKlxiGIkFY0a5E8xL-26" style="rounded=0;orthogonalLoop=1;jettySize=auto;html=1;exitX=0;exitY=0;exitDx=0;exitDy=0;entryX=-0.014;entryY=-0.057;entryDx=0;entryDy=0;entryPerimeter=0;" parent="1" source="aWeNKlxiGIkFY0a5E8xL-20" target="aWeNKlxiGIkFY0a5E8xL-6" edge="1">
          <mxGeometry relative="1" as="geometry">
            <mxPoint x="160" y="220" as="targetPoint" />
          </mxGeometry>
        </mxCell>
        <mxCell id="aWeNKlxiGIkFY0a5E8xL-25" value="Internal electrode" style="text;strokeColor=none;align=center;fillColor=none;html=1;verticalAlign=middle;whiteSpace=wrap;rounded=0;fontFamily=Times New Roman;fontSize=18;" parent="1" vertex="1">
          <mxGeometry x="50" y="230" width="80" height="20" as="geometry" />
        </mxCell>
        <mxCell id="aWeNKlxiGIkFY0a5E8xL-29" value="&lt;font style=&quot;font-size: 18px;&quot; face=&quot;Times New Roman&quot;&gt;Resistive layer&lt;/font&gt;" style="text;strokeColor=none;align=center;fillColor=none;html=1;verticalAlign=middle;whiteSpace=wrap;rounded=0;fontSize=18;" parent="1" vertex="1">
          <mxGeometry x="390" y="230" width="80" height="20" as="geometry" />
        </mxCell>
        <mxCell id="aWeNKlxiGIkFY0a5E8xL-31" value="&lt;font style=&quot;font-size: 18px;&quot; face=&quot;Times New Roman&quot;&gt;Protective film&lt;/font&gt;" style="text;strokeColor=none;align=center;fillColor=none;html=1;verticalAlign=middle;whiteSpace=wrap;rounded=0;fontSize=18;" parent="1" vertex="1">
          <mxGeometry x="217.5" y="200" width="80" height="20" as="geometry" />
        </mxCell>
        <mxCell id="aWeNKlxiGIkFY0a5E8xL-32" style="edgeStyle=none;rounded=0;orthogonalLoop=1;jettySize=auto;html=1;entryX=0.364;entryY=0.5;entryDx=0;entryDy=0;entryPerimeter=0;" parent="1" target="aWeNKlxiGIkFY0a5E8xL-17" edge="1">
          <mxGeometry relative="1" as="geometry">
            <mxPoint x="258" y="230" as="sourcePoint" />
          </mxGeometry>
        </mxCell>
        <mxCell id="aWeNKlxiGIkFY0a5E8xL-13" value="" style="rounded=0;whiteSpace=wrap;html=1;fillColor=#FFFF00;strokeColor=none;" parent="1" vertex="1">
          <mxGeometry x="230" y="290" width="120" height="10" as="geometry" />
        </mxCell>
        <mxCell id="aWeNKlxiGIkFY0a5E8xL-30" style="edgeStyle=none;rounded=0;orthogonalLoop=1;jettySize=auto;html=1;exitX=0;exitY=1;exitDx=0;exitDy=0;entryX=0.603;entryY=-0.025;entryDx=0;entryDy=0;entryPerimeter=0;" parent="1" target="aWeNKlxiGIkFY0a5E8xL-6" edge="1">
          <mxGeometry relative="1" as="geometry">
            <mxPoint x="408.24" y="245.27" as="sourcePoint" />
            <mxPoint x="344" y="290.005" as="targetPoint" />
          </mxGeometry>
        </mxCell>
      </root>
    </mxGraphModel>
  </diagram>
</mxfile>
